<svg xmlns="http://www.w3.org/2000/svg" width="1em" height="1em" viewBox="0 0 24 24"><path fill="currentColor" d="M2 21q-.825 0-1.413-.588T0 19V5q0-.825.588-1.413T2 3h20q.825 0 1.413.588T24 5v14q0 .825-.588 1.413T22 21H2Zm7-7q1.25 0 2.125-.875T12 11q0-1.25-.875-2.125T9 8q-1.25 0-2.125.875T6 11q0 1.25.875 2.125T9 14Zm9.275 3.375q.275.275.7.25t.7-.3l.7-.7q.275-.275.3-.65t-.2-.675l-.675-.9q-.125-.2-.338-.3T19 14h-1.15q-.15-.45-.25-.963T17.5 12q0-.525.1-1.013t.25-.987H19q.25 0 .463-.1t.337-.3l.675-.9q.225-.3.2-.675t-.3-.65l-.7-.7q-.275-.275-.7-.3t-.7.25q-1.05 1.05-1.663 2.462T16 12q0 1.5.613 2.913t1.662 2.462ZM2.1 19h13.8q-1.05-1.875-2.9-2.938T9 15q-2.15 0-4 1.063T2.1 19Z"/></svg>