<?xml version="1.0" encoding="utf-8"?>
<!-- Generator: Adobe Illustrator 26.5.0, SVG Export Plug-In . SVG Version: 6.00 Build 0)  -->
<svg version="1.1" id="Layer_1" xmlns="http://www.w3.org/2000/svg" xmlns:xlink="http://www.w3.org/1999/xlink" x="0px" y="0px"
	 width="974.7px" height="638.2px" viewBox="0 0 974.7 638.2" style="enable-background:new 0 0 974.7 638.2;" xml:space="preserve"
	>
<style type="text/css">
	.st0{fill:#3A3839;stroke:#000000;stroke-miterlimit:10;}
	.st1{fill:#FFFFFF;stroke:#000000;stroke-miterlimit:10;}
	.st2{fill:#40403F;stroke:#000000;stroke-miterlimit:10;}
	.st3{fill:#3A3839;}
</style>
<path class="st0" d="M0,123.1"/>
<path class="st0" d="M9.3,638.2"/>
<path class="st1" d="M30.1,185.5"/>
<path class="st1" d="M262.5,617.5"/>
<path class="st0" d="M227.4,580.3"/>
<path class="st2" d="M275.5,465"/>
<path class="st0" d="M974.7,145.8"/>
<path class="st0" d="M294.8,0"/>
<path d="M618.8,97.5l-2.9-21.8c-0.3-2.6-1.3-5-2.9-7.1c-6.8-8.9-8.7-7.5-20-13.1L565.2,37c-11-4.4-7,2.1-10.2-0.6
	c-9.5-8.2-6.3-6.3-19.7-5.4c-20.6,3-51.6,13.7-69.9,17.6L423,58.8c-7.1,1.6-7.5,5.4-8.1,5.4c-0.5,0-1.5,12.2-3,13.4
	c-19.5,15.1-42.2,32.8-53.3,53.1c-5.3,9.7-17,35.4-17,35.4c-9.9,26.9-8.8,41.9-0.2,69l0.3,1l0.8,0.8c12.5,12.4,32.3,18.8,37.7,34.9
	l13.9,0.8l9-2.9l3,15c0.4,4.8,2.9,9.2,7.1,12l53.9,35.6c8.3,5.4,18,8.4,28.1,8.4h32.5c6.8,0,13.3-1.9,18.8-5.6l43.6-28.9
	c3-2,5.2-4.7,6.4-7.7l7.1-18.7l0.1-0.1c0.1,0.1,0.1,0.2,0.1,0.2l16.7-3c-0.1,0,17.9-29.2,21.1-50.8c3.5-23.6-5.5-68.2-11.8-85.1
	 M345.6,228.9c-3.6,27-16.2-45.4-0.5-65.9C345.2,162.9,350.2,194.9,345.6,228.9z M362.6,175c-24.1,6.2-10.9-22.4-10.9-22.4
	l26.8-13.2C379.6,138.8,386.6,168.9,362.6,175z M387.9,205.7l-3.8-71c4-1.1,6.3,2.1,7.5,7.9c0.3,1.3,0.5,2.7,0.6,4.2
	C394.6,166.7,388.2,204.4,387.9,205.7z M393.2,133c-4.2,0.1-9,0.4-9,0.3l-26.6,16c6.6-18.7,23.8-35.3,44.8-49.6
	C398.2,110.4,395.2,121.6,393.2,133z M530.3,94.1l-1.3,35.8c-2.2-0.2-9.1-2.5-14.3-3.5c-3-0.6-6.2,0.2-8.6,2.1l-7.5,5.7l11,10.6
	l-28.6-4.6c-4.1-0.6-8.3-0.1-12,1.6l-16.1,7.2c-3.3,1.4-6,3.8-8,6.7c-3.7,5.8-9.6,15.2-9.3,16.8c0.1,0.4,0,0,17,1.5l21.9,15.2
	c4.2,2.9,9.7,3.9,14.7,2.4c10.1-2.7,26.3-7.3,27.6-8.3c2-1.5,6.8-21.3,7.1-22.4c0.3-0.8,3.1-2.8,4.5-3.9c0.5-0.3,1.1-0.1,1.2,0.5
	l8.1,37.2c0.3,1.4,0.2,2.7-0.5,4l-0.2,0.2c-2.3,4.9-6.8,8.7-12.2,10.2l-17.6,5.1c-1.1,0.3-2,1.1-2.2,2.3l-0.7,3
	c-0.3,1.3-0.1,2.6,0.7,3.7l0.1,0.1c1.4,2,3.2,3.7,5.4,5.1l4.1,2.7l-14.3-4.8c-2.3-0.8-4.3-2.2-5.6-4.1l0,0c-1.8-2.6-2.2-5.8-1.1-8.7
	l1.5-4l-10.1,2.7c-4.1,1.1-7.6,3.9-9.5,7.5l-2.4,4.3c-2.1,4-5.6,7.3-10,9.2l-11.6,5.3c0,0-9.1,23.6-6.3,20.9
	c1.8-1.7,8.2-2.9,12.6-3.5c2.5-0.4,5,0.6,6.5,2.5l4.4,5.7c2.2,2.8,3,6.3,2.2,9.8l-4.2,17.8l29.6-3.9c2.8-0.4,5.7,0,8.4,1
	c1.6,0.6,3.4,1.3,5,1.8c3.3,1.1,6,3.2,7.9,5.8c2,2.8,4,5.7,4,5.7l-21.9,4c-3.9,0.8-7.6,2.4-10.8,4.8l-11.8,9l-24.4-13.3l-34.8-22.4
	l-4.8-37.6l-3.4-26.4c-0.4-3.1-0.3-6.3,0.3-9.4l3.9-19.8l2.4-12.4c0.7-3.5,2.1-6.9,4.1-10l4.3-6.6c2-3,3.1-6.3,3.4-9.8l1.5-19.1
	l0.2-4.8c0.4-8.2,5.2-15.6,12.8-19.6l26-13.6c6.6-3.5,13.9-5.7,21.5-6.4l17.8-2.9c6.4-1,12.9-0.9,19.2,0.4l17,1.8 M529.5,250l5.5,3
	l-11,3.6l-7.5-2.5c-3.8-1.3-7.9-1.4-11.7-0.3l-13,3.6l-0.9-7c-0.7-5.4,0.8-10.8,4-15.1l3.2-4.2l15.1,6.7v8.7 M584.6,216.8l-2.2,12.1
	l-11.5-9.9l-0.2-6.7c-0.1-2.1-0.4-4.1-1-6.1c-0.9-3-3-5.7-6-7.5l-1.4-0.9l19.1,1.8c2.9,0.3,5.7,1.2,8.2,2.7c1.6,0.9,3.1,1.9,4.1,2.5
	l1.6,8.4L584.6,216.8z M630.7,180.5l-3.9-4.9l-1.4-1.8l2-9.8l0.2-5c0.2,0.6,0.3,1.1,0.4,1.8c2,8.2,3.4,15.3,3.5,19.7L630.7,180.5
	L630.7,180.5z"/>
<path class="st3" d="M237.7,540.6"/>
<path class="st3" d="M233.4,227.3"/>
<path class="st3" d="M323.3,434.3"/>
<path class="st3" d="M973.6,363.2"/>
</svg>
