<?xml version="1.0" encoding="utf-8"?>
<!-- Generator: Adobe Illustrator 26.5.0, SVG Export Plug-In . SVG Version: 6.00 Build 0)  -->
<svg version="1.1" id="Layer_1" xmlns="http://www.w3.org/2000/svg" xmlns:xlink="http://www.w3.org/1999/xlink" x="0px" y="0px"
	 viewBox="0 0 595.3 841.9" style="enable-background:new 0 0 595.3 841.9;" xml:space="preserve">
<style type="text/css">
	.st0{fill:#3A3839;stroke:#000000;stroke-miterlimit:10;}
	.st1{fill:#FFFFFF;stroke:#000000;stroke-miterlimit:10;}
	.st2{fill:#40403F;stroke:#000000;stroke-miterlimit:10;}
	.st3{fill:#3A3839;}
	.st4{fill:#FFFFFF;}
</style>
<path class="st0" d="M-264,377.7"/>
<path class="st0" d="M-254.7,892.8"/>
<path class="st1" d="M-233.9,440.1"/>
<path class="st1" d="M-1.5,872.1"/>
<path class="st0" d="M-36.6,834.9"/>
<path class="st2" d="M11.5,719.6"/>
<path class="st0" d="M710.7,400.4"/>
<path class="st0" d="M30.8,254.6"/>
<path d="M640.1,459.4l-11.6-13.7c-8.3-43.2-19.5-86.8-33.4-129l1-25.2c1.3-32.5,6-64.7,14.1-95.7l9.1-62.2c3.5-23.2-9-45.8-29.5-54
	l-55.6-22.2c-9-2.8-21,12.4-28,5.6c-21-20.5,3.1-27.6-25.4-30.8c-44-4.9-128.1,10.5-172.3,15.8L177,76c-10.9,2.3-20.4,8.9-26.1,18.2
	l-16.2,26.5c-4.2,6.8-8.2,13.8-12,20.9C78.5,180.4,25.2,226.1-0.5,278.9c-11.7,24.1-37.7,88.4-37.7,88.4
	c-21.8,67.1-19.3,104.5-0.5,172.5l0.7,2.4l1.9,2c27.6,31,71.3,47.1,83.3,87.2l30.9,1.9l24.3-7.3l2.2,37.3c0.8,12,6.5,22.9,15.7,29.9
	l119.2,89c18.3,13.6,39.9,20.9,62.1,20.9h71.8c14.9,0,29.4-4.9,41.5-14l96.3-72.2c6.6-5,11.5-11.7,14.1-19.4l15.6-46.7l0.1-0.3
	c0.1,0.4,0.2,0.5,0.2,0.5l36.9-7.5C577.8,643.6,644.4,544.1,640.1,459.4z M-28.9,523.9c-7.9,67.4-35.8-113.3-1-164.6
	C-29.9,359.2-18.8,439-28.9,523.9z M8.5,389.4c-53.1,15.4-24-56-24-56l59.1-33.1C46.2,299,61.6,374,8.5,389.4z M64.6,466l-8.5-177.4
	c8.9-2.9,14,5.3,16.7,19.7c0.6,3.2,1.1,6.7,1.4,10.4C79.4,368.7,65.1,462.9,64.6,466z M76.2,284.6c-9.3,0.2-19.8,1-19.9,0.8
	l-58.7,39.9c14.5-46.6,52.6-88.1,99.1-123.8C87.3,228,80.5,255.8,76.2,284.6z M503.3,365.7c8,0.6,15.4,4.7,20,11.2l9.6,13.2
	l-23.4-12.7l-15.2-5L503.3,365.7z M450.1,480.9l-24.5-29.9l-1.8-18.7l17.6,24.3L450.1,480.9z M454.4,561.7l4.1,6l-24.1-2
	c-24.8-17.2-29.5-26.4-19.7-31.2c8.3-4,24.8-12.4,27.6-17.7l5.7,18.8l1,11.7C449.6,552.5,451.4,557.5,454.4,561.7z M398.1,97.5
	l32.5-4.1c0,0-18.5,15.6-19.7,16.2c-1.2,0.5-18.6,3-18.6,3l-29.2,2.8c5.3-8.1,14.9-16.4,25.6-17.2L398.1,97.5z M293.8,118.9
	c6.3-12.8,17.7-21.2,30.6-22.6l11.1-1.1l38.5-4.6c0,0-22,22.8-23.3,23.6c-1.4,0.8-22,4.7-22,4.7l-37.1,6.2L293.8,118.9z
	 M311.9,717.3c-8.7,1.9-16.9,6-23.8,11.9l-26.2,22.6l-54.3-33.6l-77-56l-10.6-93.9l-7.4-66c-0.8-7.8-0.7-15.7,0.7-23.5l8.6-49.5
	l5.4-30.8c1.5-8.9,4.6-17.3,9-25l9.6-16.4c4.3-7.4,6.8-15.7,7.4-24.4l3.4-47.6l0.4-11.9c0.8-20.4,11.5-39,28.3-49l57.5-34.1
	c14.7-8.7,30.9-14.1,47.6-15.9l76-8.2l3.6-0.4l3.1,0.9l35.8,10.6l-44.1,3c-4.6,0.3-9.2,1.6-13.4,3.6L324.8,198
	c-5,2.5-4.1,3.6-6.5,8.8l-12.8,27.9l36.3-11.5c7.1-2.2,14.7-2.6,22-0.9l8.3,1.9c6.2,1.4,11.8,4.7,16.3,9.4l8,26.3l-27.5-3.3
	c-7.2-0.9-14.5,0.5-21,4.2l-38.9,26.8l24.3,26.5l-63.1-11.5c-9-1.6-18.3-0.3-26.6,3.9l-35.5,18c-7.3,3.6-13.4,9.5-17.6,16.8
	c-8.2,14.4-21.2,38-20.6,41.9c0.2,0.9,0,0,37.6,3.7l48.3,37.9c9.3,7.3,21.3,9.6,32.4,6.1c22.3-6.8,58.1-18.2,61-20.7
	c4.4-3.7,14.9-53.2,15.7-56c0.7-2,6.8-7,10.1-9.6c1-0.8,2.5-0.2,2.7,1.2l18,92.8c0.7,3.3,0.3,6.8-1,9.9l-0.3,0.5
	c-5.1,12.3-15,21.6-27,25.5l-39,12.8c-2.5,0.8-4.3,2.9-4.8,5.6l-1.5,7.5c-0.7,3.2-0.1,6.6,1.6,9.3l4.9,7.9l16.3,12l-39.6-14.9
	l-4.4-7.3c-3.9-6.5-4.8-14.6-2.5-21.9l3.3-10l-22.3,6.8c-9.2,2.8-16.8,9.7-21,18.8l-5,10.9c-4.6,10.1-12.3,18.3-22,23.1l-25.7,13.3
	c0,0-20.1,58.8-14,52.3c4-4.3,18.2-7.3,27.7-8.9c5.5-0.9,11,1.4,14.3,6.2l9.8,14.1c4.8,6.9,6.6,15.8,4.8,24.4L239,681l65.5-9.7
	c6.3-0.9,12.7-0.1,18.5,2.5c8.8,3.8,21.1,8.9,21.4,7.6c2.5,4.3,15.9,25.7,15.9,25.7L311.9,717.3z M278.7,358l-18.8,9.3l-17-1.9
	l-24.5,5.6l5.6-4.7c3.4-2.8,6.6-6,9.4-9.5l9.6-11.6l7.4,0.5c9.9,0.7,19.2,4.4,26.7,10.8L278.7,358z M299.1,621.2L313,615l7.6-1.3
	c6.4-1.2,13-0.6,19.2,1.4l18.4,6.1l-29.6,3.7L299.1,621.2z M365.2,593.2l-16.7-6.3c-8.4-3.2-17.4-3.5-25.9-0.8l-28.7,9l-1.8-29.9
	l15.6-35.8l40,11.6v31.7c0,0,11.3,17.8,17.4,7.5l12.2-3.7l12.2,7.5L365.2,593.2z M394.8,617.5l17.4,6.5l-33-0.9
	C379.1,623.1,399.2,621.2,394.8,617.5z M430.8,706.4l-44.4-21c0,0,12-8.7,24-13.5c12-4.8,52.1,15.5,52.1,15.5l0.3,23.8L430.8,706.4z
	 M508.5,496.3l-22.1-7.7l8,35.4l-25.4-24.8l-0.7-31.8l-12-23.2l47.5,12.3c5.7,1.4,11,3.9,15.7,7.3l26.9,19.1L508.5,496.3z
	 M601,403.2l-8.7-12.2l-3.2-4.4l4.3-24.4l0.5-12.5c0.3,1.4,0.7,2.9,0.9,4.4c4.5,20.4,7.5,38.2,7.6,49.3L601,403.2z"/>
<path class="st3" d="M-26.3,795.2"/>
<path class="st3" d="M-30.6,481.9"/>
<path class="st3" d="M59.3,688.9"/>
<path class="st3" d="M709.6,617.8"/>
<path class="st4" d="M382.4,728.5c-0.5-0.9-0.6-1.1-0.2-0.5C382.3,728.3,382.4,728.4,382.4,728.5z"/>
</svg>
