<?xml version="1.0" encoding="utf-8"?>
<!-- Generator: Adobe Illustrator 26.5.0, SVG Export Plug-In . SVG Version: 6.00 Build 0)  -->
<svg version="1.1" id="Layer_1" xmlns="http://www.w3.org/2000/svg" xmlns:xlink="http://www.w3.org/1999/xlink" x="0px" y="0px"
	 viewBox="0 0 595.3 841.9" style="enable-background:new 0 0 595.3 841.9;" xml:space="preserve">
<style type="text/css">
	.st0{fill:#3A3839;stroke:#000000;stroke-miterlimit:10;}
	.st1{fill:#FFFFFF;stroke:#000000;stroke-miterlimit:10;}
	.st2{fill:#40403F;stroke:#000000;stroke-miterlimit:10;}
	.st3{fill:#3A3839;}
	.st4{fill:#FFFFFF;}
</style>
<path class="st0" d="M-264,377.7"/>
<path class="st0" d="M-254.7,892.8"/>
<path class="st1" d="M-233.9,440.1"/>
<path class="st1" d="M-1.5,872.1"/>
<path class="st0" d="M-36.6,834.9"/>
<path class="st2" d="M11.5,719.6"/>
<path class="st0" d="M710.7,400.4"/>
<path class="st0" d="M30.8,254.6"/>
<path d="M600.8,448.5l-10.2-12.2c-7.3-38.1-17.1-76.7-29.3-114l0.9-22.3c1.1-28.7,5.2-57.2,12.3-84.5l8-54.9
	c3.1-20.5-7.9-40.5-25.8-47.8l-48.7-19.7c-7.9-2.4-18.4,11-24.6,5c-18.4-18.1,2.7-24.4-22.3-27.3c-38.5-4.3-112.2,9.3-151,13.9
	l-115.2,24.7c-9.6,2-17.9,7.8-22.8,16.1L158.1,149c-3.7,6-7.2,12.2-10.5,18.5c-38.7,34.2-85.4,74.7-107.9,121.3
	c-10.3,21.3-33,78.1-33,78.1c-19.1,59.3-17,92.4-0.4,152.4l0.6,2.1l1.6,1.8c24.2,27.4,62.5,41.6,73,77l27,1.7l21.3-6.4l2,33
	c0.7,10.6,5.7,20.2,13.8,26.4l104.4,78.6c16,12,34.9,18.5,54.4,18.5h62.9c13.1,0,25.8-4.3,36.4-12.4l84.4-63.8
	c5.8-4.4,10.1-10.4,12.3-17.1l13.7-41.2l0.1-0.3c0.1,0.3,0.2,0.4,0.2,0.4l32.4-6.7C546.2,611.2,604.6,523.3,600.8,448.5z
	 M14.7,505.5c-6.9,59.6-31.3-100.1-0.9-145.4C13.9,360,23.5,430.5,14.7,505.5z M47.5,386.7c-46.6,13.6-21.1-49.5-21.1-49.5L78.2,308
	C80.5,306.8,94,373.1,47.5,386.7z M96.6,454.3l-7.4-156.7c7.8-2.5,12.2,4.6,14.6,17.4c0.5,2.9,0.9,5.9,1.2,9.2
	C109.5,368.4,97.1,451.6,96.6,454.3z M106.8,294c-8.1,0.2-17.4,0.8-17.5,0.7l-51.4,35.3c12.7-41.2,46-77.9,86.8-109.4
	C116.5,244,110.6,268.7,106.8,294z M481,365.8c7,0.5,13.5,4.1,17.5,9.9l8.4,11.6l-20.5-11.2l-13.4-4.4L481,365.8z M434.3,467.5
	l-21.5-26.4l-1.5-16.5l15.4,21.5L434.3,467.5z M438.1,539l3.6,5.3l-21.1-1.8c-21.7-15.2-25.8-23.4-17.3-27.6
	c7.3-3.5,21.7-11,24.2-15.6l5,16.6l0.9,10.4C433.9,530.8,435.5,535.2,438.1,539z M388.8,128.7l28.5-3.6c0,0-16.2,13.7-17.3,14.3
	c-1,0.4-16.3,2.6-16.3,2.6l-25.6,2.4c4.6-7.2,13.1-14.5,22.4-15.2L388.8,128.7z M297.4,147.7c5.5-11.3,15.5-18.7,26.8-20l9.8-1
	l33.7-4c0,0-19.3,20.2-20.5,20.8c-1.2,0.7-19.3,4.1-19.3,4.1l-32.5,5.5L297.4,147.7z M313.3,676.4c-7.6,1.7-14.8,5.3-20.9,10.6
	l-22.9,19.9l-47.6-29.7l-67.4-49.5l-9.2-83l-6.5-58.3c-0.7-6.9-0.6-13.8,0.6-20.8l7.5-43.7l4.7-27.3c1.3-7.8,4-15.3,7.9-22.1
	l8.4-14.5c3.8-6.6,6-13.8,6.5-21.6l3-42.1l0.3-10.6c0.7-18.1,10.1-34.4,24.8-43.3l50.4-30.1c12.8-7.7,27-12.5,41.7-14.1l66.6-7.3
	l3.2-0.3l2.7,0.8l31.3,9.4l-38.6,2.6c-4,0.3-8,1.4-11.7,3.2l-23.4,12.7c-4.4,2.2-3.6,3.2-5.7,7.8L307.7,250l31.8-10.1
	c6.3-1.9,12.8-2.3,19.3-0.8l7.3,1.7c5.4,1.3,10.4,4.1,14.3,8.3l7,23.2l-24-3c-6.3-0.8-12.7,0.4-18.4,3.7l-34.1,23.7l21.3,23.5
	L276.8,310c-7.9-1.4-16-0.3-23.3,3.5l-31.1,16c-6.4,3.2-11.7,8.3-15.4,14.8c-7.2,12.7-18.6,33.6-18.1,37c0.2,0.8,0,0,33,3.3
	l42.3,33.5c8.1,6.4,18.7,8.5,28.4,5.4c19.5-6,50.9-16.1,53.4-18.3c3.9-3.3,13.1-47,13.8-49.5c0.6-1.8,6-6.2,8.8-8.5
	c0.9-0.7,2.2-0.2,2.4,1.1l15.7,82c0.6,3,0.3,6-0.9,8.8l-0.3,0.4c-4.4,10.9-13.2,19.1-23.6,22.5l-34.1,11.3c-2.2,0.7-3.8,2.5-4.2,5
	l-1.3,6.7c-0.6,2.9-0.1,5.8,1.4,8.2l4.3,7l14.3,10.6l-34.6-13.2l-3.9-6.4c-3.4-5.7-4.2-12.9-2.2-19.3l2.9-8.9l-19.5,6
	c-8,2.4-14.7,8.6-18.4,16.6L262,495c-4,8.9-10.8,16.2-19.3,20.4l-22.5,11.7c0,0-17.6,52-12.2,46.2c3.5-3.8,15.9-6.4,24.3-7.8
	c4.8-0.8,9.7,1.3,12.5,5.5l8.6,12.5c4.2,6.1,5.8,13.9,4.2,21.6l-8.1,39.3l57.3-8.6c5.5-0.8,11.1-0.1,16.2,2.2
	c7.7,3.4,18.5,7.8,18.7,6.8c2.2,3.8,14,22.7,14,22.7L313.3,676.4z M284.2,358.9l-16.4,8.2l-14.9-1.7l-21.5,5l4.9-4.1
	c3-2.4,5.8-5.3,8.2-8.3l8.4-10.3l6.5,0.4c8.6,0.6,16.9,3.9,23.4,9.5L284.2,358.9z M302,591.5l12.1-5.5l6.7-1.2
	c5.7-1.1,11.4-0.5,16.9,1.3l16.1,5.4l-25.9,3.3L302,591.5z M360,566.8l-14.6-5.6c-7.4-2.9-15.2-3.1-22.7-0.7l-25.2,7.9l-1.5-26.4
	l13.7-31.6l35,10.3v28c0,0,9.9,15.7,15.2,6.7l10.7-3.3l10.7,6.7L360,566.8z M385.9,588.2l15.2,5.7l-28.9-0.8
	C372.1,593.2,389.8,591.5,385.9,588.2z M417.5,666.8l-39-18.6c0,0,10.5-7.7,21.1-11.9s45.6,13.7,45.6,13.7l0.3,21L417.5,666.8z
	 M485.5,481.2l-19.3-6.8l7,31.3l-22.3-21.9l-0.6-28.1l-10.5-20.5l41.6,10.9c5,1.3,9.7,3.5,13.8,6.4l23.5,16.9L485.5,481.2z
	 M566.6,398.8l-7.6-10.8l-2.8-3.9l3.8-21.6l0.4-11.1c0.3,1.3,0.6,2.5,0.8,3.9c3.9,18.1,6.6,33.7,6.7,43.5L566.6,398.8z"/>
<path class="st3" d="M-26.3,795.2"/>
<path class="st3" d="M-30.6,481.9"/>
<path class="st3" d="M59.3,688.9"/>
<path class="st3" d="M709.6,617.8"/>
<path class="st4" d="M382.4,728.5c-0.5-0.9-0.6-1.1-0.2-0.5C382.3,728.3,382.4,728.4,382.4,728.5z"/>
</svg>
