<?xml version="1.0" encoding="utf-8"?>
<!-- Generator: Adobe Illustrator 26.5.0, SVG Export Plug-In . SVG Version: 6.00 Build 0)  -->
<svg version="1.1" id="Layer_1" xmlns="http://www.w3.org/2000/svg" xmlns:xlink="http://www.w3.org/1999/xlink" x="0px" y="0px"
	 viewBox="0 0 595.28 841.89" style="enable-background:new 0 0 595.28 841.89;" xml:space="preserve">
<style type="text/css">
	.st0{fill:#3A3839;stroke:#000000;stroke-miterlimit:10;}
	.st1{fill:#FFFFFF;stroke:#000000;stroke-miterlimit:10;}
	.st2{fill:#9FDBEA;}
	.st3{fill:#3A3839;}
	.st4{fill:#40403F;stroke:#000000;stroke-miterlimit:10;}
	.st5{fill:#383938;}
	.st6{fill:#FFFFFF;stroke:#000000;stroke-width:5;stroke-miterlimit:10;}
</style>
<path class="st0" d="M-186.82,314.74"/>
<path class="st0" d="M-189.72,753.21"/>
<path class="st1" d="M-156.6,373.3"/>
<path class="st1" d="M23.51,760.47"/>
<path class="st0" d="M-59.99,840.93"/>
<ellipse class="st2" cx="303.17" cy="416.07" rx="438.92" ry="414.9"/>
<path class="st3" d="M105.49,596.42c0,0,25.18-88.56,13.3-160.57c-5.05-30.63,10.39-80.7-30.54-139.05
	c-1.99-2.83-31.06-0.43-31.37-0.6l-54.3,35.36C36.5,227.28,189.76,106.66,301.45,96.82l16.29-1.44l0,0
	c-38.45-3.21-75.14,2.35-107.79,11.8c-45.05,13.05-71.81,29.65-105.22,57.61C63.02,199.71,28.89,242.47,4.39,290.47
	c-10.9,21.35-34.89,78.34-34.89,78.34c-20.17,59.51-17.87,92.66-0.5,153l0.6,2.1l1.7,1.82c25.62,27.47,66.08,41.76,77.09,77.31
	l28.55,1.67L105.49,596.42z"/>
<path class="st4" d="M33.67,640.27"/>
<path class="st0" d="M581.08,388.68"/>
<path class="st0" d="M48.78,273.72"/>
<path class="st3" d="M552.47,388.68l38.56,9.17l-0.01-1.35c-0.31-36.35-39.33-162.24-39.33-162.24
	c31.18,60.2,46.76,127.74,61.56,194.15l8.5,5.05c4.47,75.12-70.09,180.35-70.09,180.35l-44.57,6.62c0,0-17.83-41.38-8.1-98.49
	C505.53,483.51,552.47,388.68,552.47,388.68z"/>
<path class="st3" d="M71.92,320.02l2.8-19.68c7.75-54.49,26.58-105.99,54.9-150.13l23.34-36.38l137.76-28.07
	C331.65,81,409.55,67.38,450.36,71.69c26.39,2.78,4.05,9.1,23.5,27.31c6.42,6.01,17.54-7.49,25.93-4.97l51.49,19.72
	c19.1,7.31,30.54,27.32,27.4,47.9l-8.42,55.16c-7.5,27.51-11.9,56.05-13.09,84.9l-4.7,114.28l-35.66-168.19l0,0
	c-33.59-26.25-71.87-43.12-111.89-49.29l-32.46-5.01c-40.18-6.2-80.96-4.66-120.72,4.55l-35.79,14.9
	c-31.93,15.46-60.76,38.55-84.66,67.8l-1.03,1.26l-1.62,60.81l-25.93,70.31L71.92,320.02z"/>
<path class="st5" d="M516.81,227.09l21.88,69.66l4.2,5.66c11.82,15.93,16.8,36.07,13.8,55.81l-6.66,43.86l6.98,39.75
	c2.86,16.26,1.5,33-3.94,48.56l-65.34,187.03l-98.58,70.73c-11.27,8.08-24.7,12.42-38.47,12.42h-66.51
	c-20.59,0-40.68-6.46-57.56-18.52l-110.4-78.86c-8.54-6.1-13.91-15.85-14.57-26.47l-8.11-129.92c-1.46-23.34-0.82-46.76,1.9-69.98
	l5-42.71c1.49-12.75,4.73-25.22,9.61-37.05l18.58-45.03l1.62-54.37l35.67-22.04c56.18-34.71,120.23-52.93,185.43-52.76l0.52,0
	c35.08,0.09,69.87,6.76,102.71,19.7L516.81,227.09z"/>
<path class="st3" d="M-58.84,789"/>
<path class="st3" d="M-84.82,451.76"/>
<path class="st3" d="M71.04,616.1"/>
<path class="st3" d="M580.23,560.01"/>
<path class="st2" d="M274.87,154.17l2.11-5.49c5.84-11.38,16.44-18.87,28.32-20l10.29-0.98l35.63-4.14c0,0-20.36,20.17-21.63,20.87
	c-1.27,0.7-20.36,4.18-20.36,4.18"/>
<path class="st2" d="M339.2,145.71l1.78,0.11c4.93-7.3,13.88-14.84,23.91-15.57l8.69-0.63l30.08-3.64c0,0-17.19,13.92-18.27,14.37
	c-1.07,0.45-17.19,2.68-17.19,2.68"/>
<path class="st2" d="M274.11,197.67l73.77-7.56l36.08,10.18l-40.91,2.64c-4.3,0.28-8.52,1.39-12.42,3.26l-20.19,9.73
	c-4.62,2.22-8.36,5.99-10.61,10.67l-11.92,24.77l33.68-10.2c6.61-2,13.61-2.28,20.35-0.82l7.7,1.67c5.73,1.24,10.98,4.15,15.12,8.38
	l7.43,23.32l-25.42-2.95c-6.68-0.77-13.43,0.5-19.39,3.67l-31.37,16.66l17.83,30.62l-58.44-10.17c-8.38-1.46-17-0.26-24.69,3.44
	l-33.08,15.9c-6.74,3.24-12.38,8.42-16.25,14.92c-7.61,12.81-19.64,33.75-19.09,37.16c0.13,0.82,0,0,34.85,3.31l44.71,33.61
	c8.63,6.49,19.72,8.51,30.02,5.47c20.64-6.1,53.79-16.12,56.56-18.39c4.05-3.31,13.78-47.18,14.59-49.66
	c0.59-1.8,6.27-6.2,9.36-8.49c0.93-0.69,2.24-0.16,2.47,0.99l16.69,82.33c0.6,2.95,0.28,6.01-0.92,8.76l-0.22,0.51
	c-4.72,10.88-13.82,19.14-24.96,22.63l-36.05,11.31c-2.26,0.71-3.97,2.6-4.48,4.96l-1.44,6.6c-0.62,2.86-0.08,5.87,1.5,8.32
	l4.52,7.02l15.11,10.63l-36.69-13.24l-4.04-6.43c-3.63-5.77-4.45-12.93-2.24-19.4l3.04-8.89l-20.66,6.03
	c-8.51,2.48-15.59,8.55-19.46,16.68l-4.63,9.72c-4.29,9.01-11.46,16.24-20.33,20.52l-24.06,11.6c0,0-18.64,52.14-12.97,46.35
	c3.67-3.75,16.85-6.46,25.69-7.9c5.06-0.83,10.15,1.28,13.21,5.49l9.12,12.54c4.5,6.18,6.13,14.06,4.47,21.57l-8.73,39.48
	l60.72-8.62c5.81-0.82,11.72-0.06,17.15,2.2c8.78,3.65,21.28,8.6,19.68,6.42c-2.43-3.31,14.83,23.17,14.83,23.17l-44.94,9.09
	c-8.11,1.64-15.7,5.27-22.12,10.58l-24.26,20.06l-50.24-29.8l-71.31-49.66l-16.6-141.82c-0.81-6.94-0.59-13.96,0.66-20.83
	l12.97-71.29c1.43-7.85,4.27-15.36,8.38-22.14l8.81-14.54c3.96-6.54,6.33-13.95,6.91-21.62l3.17-42.13l0.43-10.53
	c0.74-18.14,10.66-34.58,26.19-43.42l53.26-30.3C243.62,204.07,258.62,199.26,274.11,197.67z"/>
<path class="st2" d="M289.96,512.58l37.07,10.25v28.14c0,0,10.48,15.73,16.12,6.62l11.28-3.31l11.28,6.62l-22.57,8.28l-15.49-5.62
	c-7.74-2.81-16.15-3.05-24.03-0.69l-26.56,7.96l-1.61-26.49L289.96,512.58z"/>
<path class="st6" d="M538.19,729.51"/>
<path class="st2" d="M294.79,588.48l7.08-1.21c5.94-1.01,12.03-0.58,17.78,1.27l17.05,5.47l-27.4,3.31l-27.4-3.31L294.79,588.48z"/>
<path class="st2" d="M370.55,590.7c4.03,3.31-14.51,5-14.51,5l30.63,0.78"/>
<path class="st2" d="M207.15,372.2l5.15-4.17c3.16-2.56,6.08-5.38,8.7-8.44l8.85-10.29l6.91,0.45c9.12,0.6,17.8,3.97,24.74,9.6
	l1.54,1.25l-17.47,8.28l-15.72-1.66"/>
<polyline class="st2" points="399.2,443.13 397.57,426.57 413.78,448.09 421.89,469.61 "/>
<path class="st2" d="M461.92,367c-0.88-4.97,11.71,7.47,11.71,7.47l14.07,4.4l21.7,11.31l-8.96-11.72
	c-4.36-5.7-11.15-9.32-18.59-9.9L461.92,367z"/>
<path class="st2" d="M438.84,457.58l3.71,23.97l20.41,20.54l-7.42-25.68l20.41,6.85l35.25-11.98l-24.93-16.91
	c-4.37-2.97-9.3-5.15-14.55-6.45l-44.02-10.88"/>
<path class="st2" d="M362.77,651.02c0,0,11.13-7.7,22.27-11.98c11.13-4.28,48.24,13.7,48.24,13.7l0.32,21.12l-29.69-4.26"/>
<polyline class="st2" points="401.42,508.64 414.72,498.66 441.96,539.46 410.42,540.59 388.74,519.2 "/>
<path class="st2" d="M56.89,299.06l7.85,157.31C64.1,460.36,92.35,287.91,56.89,299.06z"/>
<path class="st2" d="M-9.48,338.83c0,0-26.9,63.34,22.27,49.64c49.17-13.7,34.94-80.22,32.47-79.02"/>
<path class="st2" d="M-22.8,361.71c0,0,10.24,70.69,0.96,146.01C-29.2,567.48-54.94,407.31-22.8,361.71z"/>
</svg>
