<?xml version="1.0" encoding="UTF-8"?>
<svg id="Layer_1" data-name="Layer 1" xmlns="http://www.w3.org/2000/svg" viewBox="0 0 744.3 594.01">
  <defs>
    <style>
      .cls-1 {
        fill: #fff;
      }

      .cls-2 {
        fill: #383938;
      }

      .cls-3 {
        fill: #3a3839;
      }
    </style>
  </defs>
  <circle class="cls-1" cx="459.3" cy="285" r="285"/>
  <path class="cls-3" d="M330.94,411.93s16.35-62.33,8.64-113.01c-3.28-21.56,6.75-56.8-19.83-97.86-1.29-1.99-20.17-.3-20.37-.42l-35.26,24.88c22.02-73.4,121.54-158.29,194.06-165.22l10.58-1.01h0c-24.97-2.26-48.79,1.65-69.99,8.31-29.25,9.18-46.63,20.87-68.32,40.55-27.09,24.57-49.25,54.67-65.15,88.45-7.08,15.03-22.66,55.14-22.66,55.14-13.1,41.88-11.6,65.21-.32,107.68l.39,1.48,1.1,1.28c16.63,19.33,42.91,29.39,50.05,54.41l18.54,1.18,18.54-5.84Z"/>
  <path class="cls-3" d="M621.17,265.72l25.04,6.45v-.95c-.21-25.58-25.55-114.18-25.55-114.18,20.25,42.37,30.36,89.91,39.97,136.64l5.52,3.55c2.9,52.87-45.51,126.93-45.51,126.93l-28.94,4.66s-11.58-29.13-5.26-69.32c4.25-27.04,34.73-93.78,34.73-93.78Z"/>
  <path class="cls-3" d="M309.14,217.4l1.82-13.85c5.03-38.35,17.26-74.59,35.65-105.66l15.16-25.6,89.45-19.76c26.58-3.35,77.16-12.93,103.66-9.9,17.14,1.96,2.63,6.41,15.26,19.22,4.17,4.23,11.39-5.27,16.84-3.5l33.43,13.88c12.4,5.15,19.83,19.23,17.79,33.71l-5.47,38.82c-4.87,19.36-7.73,39.45-8.5,59.75l-3.05,80.43-23.15-118.37h0c-21.81-18.48-46.66-30.35-72.65-34.69l-21.08-3.52c-26.09-4.36-52.57-3.28-78.38,3.21l-23.24,10.48c-20.73,10.88-39.45,27.13-54.97,47.72l-.67,.89-1.05,42.8-16.84,49.49-20-65.54Z"/>
  <path class="cls-2" d="M598.02,152l14.21,49.03,2.73,3.99c7.67,11.21,10.91,25.38,8.96,39.28l-4.32,30.87,4.54,27.97c1.86,11.44,.97,23.23-2.56,34.18l-42.43,131.63-64.01,49.78c-7.32,5.69-16.04,8.74-24.98,8.74h-43.19c-13.37,0-26.42-4.55-37.37-13.03l-71.69-55.5c-5.55-4.3-9.03-11.15-9.46-18.63l-5.26-91.44c-.95-16.42-.53-32.91,1.23-49.25l3.25-30.06c.97-8.97,3.07-17.75,6.24-26.08l12.06-31.69,1.05-38.26,23.16-15.51c36.48-24.43,78.06-37.25,120.4-37.13h.33c22.78,.07,45.36,4.76,66.69,13.87l40.41,17.25Z"/>
  <path class="cls-1" d="M440.92,100.68l1.37-3.86c3.79-8.01,10.68-13.28,18.39-14.07l6.68-.69,23.13-2.91s-13.22,14.2-14.04,14.69-13.22,2.94-13.22,2.94"/>
  <path class="cls-1" d="M482.7,94.72l1.16,.08c3.2-5.14,9.02-10.45,15.53-10.96l5.64-.44,19.53-2.56s-11.16,9.8-11.86,10.11-11.16,1.89-11.16,1.89"/>
  <path class="cls-1" d="M440.43,131.29l47.9-5.32,23.43,7.16-26.56,1.86c-2.79,.2-5.53,.98-8.06,2.3l-13.11,6.85c-3,1.57-5.43,4.21-6.89,7.51l-7.74,17.43,21.87-7.18c4.29-1.41,8.83-1.61,13.21-.58l5,1.17c3.72,.87,7.13,2.92,9.81,5.9l4.83,16.41-16.5-2.08c-4.33-.55-8.72,.35-12.59,2.58l-20.37,11.73,11.58,21.55-37.95-7.16c-5.44-1.03-11.04-.18-16.03,2.42l-21.48,11.19c-4.37,2.28-8.04,5.93-10.55,10.5-4.94,9.02-12.76,23.76-12.39,26.15,.09,.57,0,0,22.63,2.33l29.03,23.66c5.6,4.57,12.8,5.99,19.49,3.85,13.4-4.29,34.92-11.34,36.72-12.94,2.63-2.33,8.95-33.2,9.47-34.95,.38-1.27,4.07-4.36,6.08-5.98,.6-.49,1.45-.11,1.61,.7l10.84,57.94c.39,2.07,.18,4.23-.59,6.16l-.14,.36c-3.06,7.66-8.98,13.47-16.21,15.93l-23.41,7.96c-1.47,.5-2.58,1.83-2.91,3.49l-.93,4.65c-.4,2.02-.05,4.13,.97,5.85l2.94,4.94,9.81,7.48-23.83-9.32-2.62-4.53c-2.35-4.06-2.89-9.1-1.45-13.66l1.97-6.26-13.41,4.24c-5.53,1.75-10.12,6.02-12.64,11.74l-3.01,6.84c-2.78,6.34-7.44,11.43-13.2,14.44l-15.63,8.17s-12.1,36.7-8.42,32.62c2.38-2.64,10.94-4.55,16.68-5.56,3.29-.58,6.59,.9,8.58,3.86l5.92,8.83c2.92,4.35,3.98,9.9,2.9,15.18l-5.67,27.79,39.43-6.07c3.77-.58,7.61-.04,11.14,1.55,5.7,2.57,13.82,6.05,12.78,4.52-1.58-2.33,9.63,16.31,9.63,16.31l-29.18,6.4c-5.26,1.15-10.19,3.71-14.36,7.45l-15.75,14.12-32.62-20.97-46.31-34.95-10.78-99.81c-.53-4.88-.38-9.83,.43-14.66l8.42-50.17c.93-5.52,2.77-10.81,5.44-15.58l5.72-10.23c2.57-4.6,4.11-9.82,4.49-15.22l2.06-29.65,.28-7.41c.48-12.77,6.92-24.34,17-30.56l34.58-21.33c8.83-5.44,18.57-8.83,28.62-9.94Z"/>
  <path class="cls-1" d="M450.72,352.93l24.07,7.21v19.81s6.8,11.07,10.47,4.66l7.33-2.33,7.33,4.66-14.65,5.83-10.06-3.95c-5.03-1.98-10.49-2.14-15.61-.48l-17.25,5.6-1.05-18.64,9.42-22.36Z"/>
  <path class="cls-1" d="M453.86,406.34l4.6-.85c3.86-.71,7.81-.41,11.55,.89l11.07,3.85-17.79,2.33-17.79-2.33,8.37-3.89Z"/>
  <path class="cls-1" d="M503.05,407.9c2.62,2.33-9.42,3.52-9.42,3.52l19.89,.55"/>
  <path class="cls-1" d="M396.95,254.12l3.34-2.93c2.05-1.8,3.94-3.79,5.65-5.94l5.75-7.24,4.49,.32c5.92,.42,11.55,2.79,16.06,6.76l1,.88-11.34,5.83-10.21-1.17"/>
  <polyline class="cls-1" points="521.65 304.04 520.6 292.39 531.12 307.54 536.38 322.68"/>
  <path class="cls-1" d="M562.38,250.46c-.57-3.5,7.6,5.25,7.6,5.25l9.13,3.1,14.09,7.96-5.82-8.25c-2.83-4.01-7.24-6.56-12.07-6.97l-12.94-1.09Z"/>
  <path class="cls-1" d="M547.39,314.21l2.41,16.87,13.25,14.46-4.82-18.07,13.25,4.82,22.89-8.43-16.19-11.9c-2.84-2.09-6.04-3.63-9.45-4.54l-28.59-7.66"/>
  <path class="cls-1" d="M498,450.36s7.23-5.42,14.46-8.43c7.23-3.01,31.33,9.64,31.33,9.64l.2,14.87-19.28-3"/>
  <polyline class="cls-1" points="523.09 350.15 531.73 343.13 549.42 371.84 528.94 372.63 514.86 357.59"/>
  <path class="cls-1" d="M299.38,202.65l5.1,110.71c-.42,2.81,17.93-118.56-5.1-110.71Z"/>
  <path class="cls-1" d="M256.29,230.64s-17.47,44.58,14.46,34.94,22.68-56.46,21.08-55.61"/>
  <path class="cls-1" d="M247.64,246.74s6.65,49.75,.62,102.76c-4.78,42.05-21.49-70.67-.62-102.76Z"/>
</svg>