<?xml version="1.0" encoding="UTF-8"?>
<svg id="Layer_1" data-name="Layer 1" xmlns="http://www.w3.org/2000/svg" viewBox="0 0 756.8 606.6">
  <defs>
    <style>
      .cls-1 {
        fill: #fff;
      }

      .cls-2 {
        fill: #383938;
      }

      .cls-3 {
        fill: #3a3839;
      }
    </style>
  </defs>
  <circle class="cls-1" cx="459.3" cy="297.5" r="297.5"/>
  <path class="cls-3" d="M311.83,457.47s19.01-70.28,10.04-127.43c-3.81-24.31,7.85-64.05-23.05-110.35-1.5-2.25-23.45-.34-23.68-.47l-41,28.06c25.61-82.77,141.31-178.49,225.63-186.31l12.3-1.14h0c-29.03-2.55-56.73,1.87-81.37,9.37-34.01,10.35-54.21,23.53-79.43,45.72-31.49,27.71-57.26,61.64-75.75,99.74-8.23,16.94-26.34,62.18-26.34,62.18-15.23,47.23-13.49,73.53-.38,121.42l.46,1.66,1.28,1.44c19.34,21.8,49.89,33.14,58.2,61.36l21.56,1.33,21.56-6.58Z"/>
  <path class="cls-3" d="M649.27,292.6l29.11,7.28v-1.07c-.24-28.85-29.7-128.76-29.7-128.76,23.54,47.78,35.3,101.38,46.47,154.08l6.42,4c3.38,59.61-52.92,143.13-52.92,143.13l-33.65,5.25s-13.46-32.84-6.12-78.16c4.94-30.49,40.38-105.75,40.38-105.75Z"/>
  <path class="cls-3" d="M286.48,238.12l2.11-15.62c5.85-43.24,20.06-84.11,41.45-119.15l17.62-28.87,104.01-22.28c30.9-3.78,89.71-14.58,120.52-11.17,19.93,2.21,3.06,7.23,17.74,21.68,4.85,4.77,13.24-5.95,19.58-3.94l38.87,15.65c14.42,5.8,23.06,21.68,20.68,38.02l-6.36,43.78c-5.66,21.83-8.98,44.48-9.88,67.38l-3.55,90.69-26.92-133.48h0c-25.36-20.84-54.26-34.22-84.47-39.12l-24.51-3.97c-30.34-4.92-61.12-3.7-91.14,3.61l-27.02,11.82c-24.1,12.27-45.87,30.6-63.92,53.81l-.78,1-1.22,48.26-19.58,55.8-23.25-73.9Z"/>
  <path class="cls-2" d="M622.36,164.36l16.52,55.28,3.17,4.5c8.92,12.64,12.68,28.62,10.42,44.29l-5.03,34.81,5.27,31.54c2.16,12.9,1.13,26.19-2.97,38.54l-49.33,148.43-74.42,56.13c-8.51,6.42-18.65,9.86-29.04,9.86h-50.21c-15.55,0-30.71-5.13-43.45-14.7l-83.35-62.59c-6.45-4.84-10.5-12.58-11-21.01l-6.12-103.11c-1.1-18.52-.62-37.11,1.43-55.53l3.78-33.9c1.13-10.12,3.57-20.01,7.25-29.4l14.02-35.74,1.22-43.15,26.93-17.49c42.41-27.54,90.76-42.01,139.99-41.87h.39c26.49,.07,52.74,5.37,77.54,15.64l46.98,19.45Z"/>
  <path class="cls-1" d="M439.7,106.49l1.59-4.35c4.41-9.03,12.41-14.97,21.38-15.87l7.77-.78,26.9-3.29s-15.37,16.01-16.33,16.56-15.37,3.32-15.37,3.32"/>
  <path class="cls-1" d="M488.27,99.78l1.35,.09c3.73-5.79,10.48-11.78,18.05-12.36l6.56-.5,22.71-2.89s-12.98,11.05-13.79,11.4-12.98,2.13-12.98,2.13"/>
  <path class="cls-1" d="M439.13,141.02l55.7-6,27.24,8.08-30.88,2.1c-3.25,.22-6.43,1.1-9.38,2.59l-15.24,7.72c-3.49,1.77-6.31,4.75-8.01,8.46l-9,19.66,25.43-8.09c4.99-1.59,10.27-1.81,15.36-.65l5.81,1.32c4.32,.98,8.29,3.29,11.41,6.65l5.61,18.51-19.19-2.34c-5.04-.61-10.14,.4-14.64,2.91l-23.69,13.22,13.46,24.3-44.12-8.07c-6.33-1.16-12.83-.21-18.64,2.73l-24.97,12.62c-5.09,2.57-9.35,6.68-12.27,11.84-5.74,10.17-14.83,26.79-14.41,29.49,.1,.65,0,0,26.31,2.63l33.75,26.67c6.52,5.15,14.89,6.75,22.66,4.34,15.58-4.84,40.61-12.79,42.7-14.59,3.06-2.63,10.4-37.44,11.01-39.41,.44-1.43,4.74-4.92,7.07-6.74,.7-.55,1.69-.13,1.87,.79l12.6,65.34c.45,2.34,.21,4.77-.69,6.95l-.17,.4c-3.56,8.64-10.44,15.19-18.85,17.96l-27.22,8.98c-1.71,.56-3,2.07-3.39,3.94l-1.08,5.24c-.47,2.27-.06,4.66,1.13,6.6l3.42,5.57,11.41,8.44-27.7-10.51-3.05-5.1c-2.74-4.58-3.36-10.26-1.69-15.4l2.29-7.06-15.6,4.78c-6.43,1.97-11.77,6.79-14.69,13.24l-3.5,7.72c-3.24,7.15-8.65,12.89-15.35,16.29l-18.17,9.21s-14.07,41.38-9.79,36.78c2.77-2.98,12.72-5.13,19.39-6.27,3.82-.66,7.67,1.02,9.98,4.35l6.89,9.95c3.39,4.91,4.63,11.16,3.37,17.12l-6.59,31.33,45.84-6.84c4.38-.65,8.85-.05,12.95,1.75,6.63,2.9,16.06,6.82,14.86,5.1-1.84-2.63,11.2,18.39,11.2,18.39l-33.93,7.21c-6.12,1.3-11.85,4.18-16.7,8.4l-18.31,15.92-37.93-23.65-53.84-39.41-12.53-112.55c-.61-5.51-.45-11.08,.5-16.53l9.79-56.57c1.08-6.23,3.22-12.19,6.33-17.57l6.65-11.54c2.99-5.19,4.78-11.07,5.22-17.16l2.4-33.43,.32-8.36c.56-14.4,8.05-27.44,19.77-34.46l40.21-24.05c10.26-6.14,21.59-9.95,33.28-11.21Z"/>
  <path class="cls-1" d="M451.09,390.94l27.99,8.13v22.33s7.91,12.48,12.17,5.25l8.52-2.63,8.52,5.25-17.04,6.57-11.7-4.46c-5.85-2.23-12.19-2.42-18.14-.54l-20.05,6.31-1.22-21.02,10.95-25.21Z"/>
  <path class="cls-1" d="M454.74,451.17l5.35-.96c4.49-.8,9.09-.46,13.43,1l12.87,4.34-20.69,2.63-20.69-2.63,9.74-4.39Z"/>
  <path class="cls-1" d="M511.94,452.93c3.04,2.63-10.95,3.97-10.95,3.97l23.12,.62"/>
  <path class="cls-1" d="M388.57,279.52l3.89-3.31c2.39-2.03,4.59-4.27,6.57-6.7l6.68-8.17,5.22,.36c6.89,.47,13.43,3.15,18.68,7.62l1.16,.99-13.19,6.57-11.87-1.31"/>
  <polyline class="cls-1" points="533.56 335.81 532.34 322.68 544.57 339.75 550.69 356.83"/>
  <path class="cls-1" d="M580.91,275.39c-.66-3.94,8.84,5.92,8.84,5.92l10.62,3.49,16.38,8.97-6.76-9.3c-3.29-4.52-8.42-7.4-14.03-7.86l-15.05-1.23Z"/>
  <path class="cls-1" d="M563.49,347.28l2.8,19.02,15.41,16.3-5.6-20.38,15.41,5.43,26.62-9.51-18.82-13.42c-3.3-2.35-7.02-4.09-10.98-5.12l-33.24-8.63"/>
  <path class="cls-1" d="M506.06,500.8s8.4-6.11,16.81-9.51c8.4-3.4,36.42,10.87,36.42,10.87l.24,16.77-22.41-3.38"/>
  <polyline class="cls-1" points="535.24 387.81 545.28 379.89 565.85 412.26 542.03 413.16 525.67 396.19"/>
  <path class="cls-1" d="M275.13,218.38l5.93,124.85c-.48,3.17,20.84-133.69-5.93-124.85Z"/>
  <path class="cls-1" d="M226.6,251.4s-20.18,48.73,16.7,38.2c36.87-10.54,26.2-61.72,24.35-60.8"/>
  <path class="cls-1" d="M216.62,258.01s7.68,54.39,.72,112.34c-5.52,45.97-24.82-77.26-.72-112.34Z"/>
</svg>