<?xml version="1.0" encoding="utf-8"?>
<!-- Generator: Adobe Illustrator 26.5.0, SVG Export Plug-In . SVG Version: 6.00 Build 0)  -->
<svg version="1.1" id="Layer_1" xmlns="http://www.w3.org/2000/svg" xmlns:xlink="http://www.w3.org/1999/xlink" x="0px" y="0px"
	 viewBox="0 0 595.3 841.9" style="enable-background:new 0 0 595.3 841.9;" xml:space="preserve">
<style type="text/css">
	.st0{fill:#3A3839;stroke:#000000;stroke-miterlimit:10;}
	.st1{fill:#FFFFFF;stroke:#000000;stroke-miterlimit:10;}
	.st2{fill:#40403F;stroke:#000000;stroke-miterlimit:10;}
	.st3{fill:#3A3839;}
	.st4{fill:#FFFFFF;}
</style>
<path class="st0" d="M-264,377.7"/>
<path class="st0" d="M-254.7,892.8"/>
<path class="st1" d="M-233.9,440.1"/>
<path class="st1" d="M-1.5,872.1"/>
<path class="st0" d="M-36.6,834.9"/>
<path d="M190,126.2c58-31,109.6-62.5,163.5-67.2c0,0-75.2-6-116.9,5.9c-57.5,16.5-70.1,17.8-112.8,53.3
	C70.7,162.5,5.4,214.9-25.9,275.8c-13.9,27.1-44.6,99.4-44.6,99.4c-25.8,75.5-22.8,117.5-0.6,194.1l0.8,2.7l2.2,2.3
	c32.7,34.9,84.4,53,98.5,98.1l36.5,2.1l36.5-10.5c0,0,32.2-112.4,17-203.7c-6.5-38.9,13.3-102.4-39-176.4
	c-2.5-3.6-39.7-0.5-40.1-0.8L-28.2,328C-1.2,245.7,94.5,177.3,190,126.2z M-59.4,551.4c-9.4,75.8-42.3-127.4-1.2-185.2
	C-60.6,366.2-47.5,455.9-59.4,551.4z M51.2,486.3l-10-199.6C85.4,272.9,52,481.4,51.2,486.3z M26.3,299.9
	c3.1-1.5,21.3,82.9-41.5,100.2s-28.4-63-28.4-63L26.3,299.9z"/>
<path class="st2" d="M11.5,719.6"/>
<path class="st0" d="M710.7,400.4"/>
<path class="st0" d="M30.8,254.6"/>
<path d="M664.8,387.8l21,27.9l1.7,0.1c-0.3-46.1-49.3-198.6-49.3-198.6c35.6,76.4,63.3,162.1,80.2,246.3l13.7,15.4
	c5.1,95.3-73.7,207.2-73.7,207.2l-43.6,8.4c0,0-20.4-52.5-9.3-125C613,520.7,664.8,387.8,664.8,387.8z"/>
<path d="M672.7,51.6l-65.8-25c-10.7-3.2-24.9,13.9-33.1,6.3c-24.8-23.1,3.7-31.1-30-34.6c-52.1-5.5-151.6,11.8-203.9,17.8
	L184.2,47.6c-12.9,2.6-24.1,10-30.9,20.5l-19.2,29.8c-36.2,56-60.2,121.3-70.1,190.5l-3.6,25l39.3,118.1l33.1-89.2l2.1-77.2l1.3-1.6
	c30.5-37.1,67.4-66.4,108.1-86l45.7-18.9c50.8-11.7,102.9-13.6,154.2-5.8l41.5,6.4c25.6,3.9,50.6,11.2,74.5,21.7
	c24,10.5,46.9,24.2,68.4,40.8l45.5,213.4l6-145c1.5-36.6,7.1-72.8,16.7-107.7l10.8-70C711.7,86.3,697,60.9,672.7,51.6z M363.5,95.9
	l-43.9,7l2.7-7c7.5-14.4,21-23.9,36.2-25.4l13.1-1.2l45.5-5.2c0,0-26,25.6-27.6,26.5S363.5,95.9,363.5,95.9z M460.8,85.4
	c-1.4,0.6-22,3.4-22,3.4L404.3,92c6.3-9.1,17.6-18.5,30.3-19.4l11.1-0.8l38.4-4.6C484.1,67.2,462.2,84.8,460.8,85.4z"/>
<path d="M678.5,360.5L678.5,360.5l1-5.6c3.8-25-2.5-50.6-17.6-70.8l-5.4-7.2l-3.2-10.1l0,0v-0.1v-0.1l-24.7-78l-79.5-31.1
	c-41.9-16.4-86.4-24.9-131.2-25h-0.7c-83.3-0.2-165.1,22.9-236.8,66.9l-45.6,28l-2.1,69L109,353.5c-6.2,15-10.4,30.8-12.3,47
	l-6.4,54.2c-3.5,29.5-4.3,59.2-2.4,88.8l10.3,164.8c0.9,13.5,7.7,25.8,18.6,33.6l141,100.1c21.6,15.3,47.2,23.5,73.5,23.5h85
	c17.6,0,34.8-5.5,49.1-15.8l113.9-81.2c7.8-5.6,13.6-13.2,16.7-21.8l18.5-52.5L675,522.6c6.9-19.7,4.7-41,1.1-61.6l-7-50.4l2.6-13.6
	L678.5,360.5z M570.2,373.5c9.5,0.7,18.2,5.3,23.7,12.6l11.4,14.9l-27.7-14.3l-18-5.6L570.2,373.5z M497,475.8l10.3,27.3l-29-33.6
	l-2.1-21L497,475.8z M465.5,563.4c9.8-4.5,29.3-14,32.7-19.9l6.8,21.1l1.2,13.2c0.5,5.8,2.6,11.4,6.2,16.2l4.9,6.7l-28.5-2.2
	C459.5,579.1,453.9,568.8,465.5,563.4z M343.8,769c-10.3,2.1-20,6.7-28.2,13.4l-31,25.4L220.4,770l-91.1-63L108,527.2
	c-1-8.8-0.8-17.7,0.8-26.4l16.6-90.4c1.8-10,5.5-19.5,10.7-28.1l11.3-18.5c5.1-8.3,8.1-17.7,8.8-27.4l4-53.5l0.5-13.4
	c1-23,13.6-43.9,33.5-55.1l68-38.4c17.4-9.8,36.5-15.9,56.3-17.9l94.2-9.6l46.1,12.9l-52.2,3.4c-5.5,0.3-10.9,1.8-15.9,4.1
	L359,184.8c-5.9,2.8-4.8,4-7.7,9.9l-15.2,31.4l43-12.9c8.4-2.5,17.4-2.9,26-1l9.8,2.1c7.3,1.6,14,5.3,19.3,10.6l9.5,29.6l-32.5-3.7
	c-8.5-1-17.2,0.6-24.8,4.7l-46,30.1l28.7,29.8l-74.6-12.9c-10.7-1.8-21.7-0.3-31.5,4.4l-42,20.2c-8.6,4.1-15.8,10.7-20.8,18.9
	c-9.7,16.2-25.1,42.8-24.4,47.1c0.2,1,0,0,44.5,4.2l57.1,42.6c11,8.2,25.2,10.8,38.3,6.9c26.4-7.7,68.7-20.5,72.2-23.3
	c5.2-4.2,17.6-59.9,18.6-63c0.8-2.3,8-7.9,12-10.8c1.2-0.9,2.9-0.2,3.2,1.3L443,455.4c0.8,3.7,0.4,7.6-1.2,11.1l-0.3,0.6
	c-6,13.8-17.7,24.3-31.9,28.7l-46.1,14.4c-2.9,0.9-5.1,3.3-5.7,6.3l-1.8,8.4c-0.8,3.6-0.1,7.4,1.9,10.5l5.8,8.9l19.3,13.5L336.1,541
	l-5.2-8.2c-4.6-7.3-5.7-16.4-2.9-24.6l3.9-11.3l-26.4,7.6c-10.9,3.2-19.9,10.9-24.9,21.2l-5.9,12.3c-5.5,11.4-14.6,20.6-26,26
	l-30.4,15c0,0-23.8,66.2-16.6,58.8c4.7-4.8,21.5-8.2,32.8-10c6.5-1,13,1.6,16.9,7l11.6,15.9c5.7,7.8,7.8,17.8,5.7,27.4l-11.2,50.1
	l77.5-10.9c7.4-1,15-0.1,21.9,2.8c10.4,4.3,25,10,25.3,8.6c2.9,4.8,18.8,28.9,18.8,28.9L343.8,769z M304.5,364.8l-22.3,10.5
	l-20.1-2.1l-29,6.3l6.6-5.3c4-3.2,7.8-6.8,11.1-10.7l11.3-13.1l8.8,0.6c11.7,0.8,22.7,5,31.6,12.2L304.5,364.8z M363.6,665.1
	l-35-4.2l16.5-7l9-1.5c7.6-1.3,15.4-0.7,22.7,1.6l21.8,6.9L363.6,665.1z M406.8,629.4l-19.8-7.1c-9.9-3.6-20.6-3.9-30.7-0.9
	l-33.9,10.1l-2.1-33.6l18.5-40.3l47.3,13v35.7c0,0,13.4,20,20.6,8.4l14.4-4.2l14.4,8.4L406.8,629.4z M441.8,656.7l20.6,7.3l-39.1-1
	C423.3,663,447,660.9,441.8,656.7z M484.4,756.8l-52.5-23.6c0,0,14.2-9.8,28.4-15.2c14.2-5.4,61.6,17.4,61.6,17.4l0.4,26.8
	L484.4,756.8z M576.4,520.4l-26.1-8.7l9.5,39.8l-30-27.9l-0.8-35.8l-14.2-26.1l56.2,13.8c6.7,1.6,13,4.4,18.6,8.2l31.8,21.5
	L576.4,520.4z"/>
<path class="st3" d="M-26.3,795.2"/>
<path class="st3" d="M-30.6,481.9"/>
<path class="st3" d="M59.3,688.9"/>
<path class="st3" d="M709.6,617.8"/>
<path class="st4" d="M404.3,92c-0.1,0.1-0.2,0.2-0.3,0.4l-2.3-0.1L404.3,92z"/>
<path class="st4" d="M382.4,728.5c-0.5-0.9-0.6-1.1-0.2-0.5C382.3,728.3,382.4,728.4,382.4,728.5z"/>
</svg>
