<?xml version="1.0" encoding="utf-8"?>
<!-- Generator: Adobe Illustrator 26.5.0, SVG Export Plug-In . SVG Version: 6.00 Build 0)  -->
<svg version="1.1" id="Layer_1" xmlns="http://www.w3.org/2000/svg" xmlns:xlink="http://www.w3.org/1999/xlink" x="0px" y="0px"
	 viewBox="0 0 595.28 841.89" style="enable-background:new 0 0 595.28 841.89;" xml:space="preserve">
<style type="text/css">
	.st0{fill:#3A3839;stroke:#000000;stroke-miterlimit:10;}
	.st1{fill:#FFFFFF;stroke:#000000;stroke-miterlimit:10;}
	.st2{fill:#DCCEE6;}
	.st3{fill:#261A32;}
	.st4{fill:#40403F;stroke:#000000;stroke-miterlimit:10;}
	.st5{fill:#3A3839;}
	.st6{fill:#FFFFFF;stroke:#000000;stroke-width:5;stroke-miterlimit:10;}
</style>
<path class="st0" d="M-162.72,325.6"/>
<path class="st0" d="M-96.46,695.48"/>
<path class="st1" d="M-138.63,375"/>
<path class="st1" d="M109.25,653.97"/>
<path class="st0" d="M53.14,711.17"/>
<ellipse class="st2" cx="297.22" cy="409.1" rx="295" ry="287.92"/>
<path class="st3" d="M164.35,537.33c0,0,16.92-62.97,8.94-114.16c-3.4-21.78,6.99-57.38-20.52-98.86
	c-1.34-2.01-20.88-0.3-21.08-0.42l-36.5,25.14c22.8-74.16,125.8-159.91,200.87-166.92l10.95-1.02l0,0
	c-25.85-2.28-50.5,1.67-72.44,8.39c-30.28,9.28-48.26,21.08-70.72,40.96c-28.04,24.82-50.97,55.23-67.44,89.36
	c-7.32,15.18-23.45,55.7-23.45,55.7c-13.56,42.31-12.01,65.88-0.34,108.78l0.41,1.49l1.14,1.29c17.22,19.53,44.41,29.69,51.81,54.97
	l19.19,1.19L164.35,537.33z"/>
<path class="st4" d="M116.08,568.51"/>
<path class="st0" d="M484,389.62"/>
<path class="st0" d="M126.24,307.88"/>
<path class="st3" d="M464.77,389.62l25.92,6.52l-0.01-0.96c-0.21-25.84-26.43-115.35-26.43-115.35
	c20.96,42.8,31.43,90.83,41.37,138.04l5.71,3.59c3.01,53.41-47.11,128.23-47.11,128.23l-29.96,4.71c0,0-11.98-29.42-5.45-70.03
	C433.22,457.05,464.77,389.62,464.77,389.62z"/>
<path class="st3" d="M141.79,340.81l1.88-13.99c5.21-38.74,17.86-75.36,36.9-106.74l15.69-25.87l92.59-19.96
	c27.51-3.38,79.87-13.07,107.3-10c17.74,1.98,2.72,6.47,15.8,19.42c4.32,4.28,11.79-5.33,17.43-3.53l34.6,14.02
	c12.83,5.2,20.52,19.42,18.41,34.06l-5.66,39.22c-5.04,19.56-8,39.85-8.8,60.36l-3.16,81.25L440.8,289.46l0,0
	c-22.57-18.67-48.3-30.66-75.2-35.05l-21.82-3.56c-27.01-4.41-54.41-3.31-81.13,3.24l-24.05,10.59
	c-21.46,10.99-40.84,27.41-56.9,48.2l-0.69,0.9l-1.09,43.24l-17.43,49.99L141.79,340.81z"/>
<path class="st3" d="M440.8,274.73l14.71,49.53l2.82,4.03c7.94,11.32,11.29,25.64,9.27,39.68l-4.47,31.19l4.69,28.26
	c1.92,11.56,1.01,23.46-2.64,34.53l-43.92,132.98l-66.26,50.29c-7.57,5.75-16.6,8.83-25.86,8.83h-44.7
	c-13.84,0-27.34-4.6-38.68-13.17l-74.2-56.07c-5.74-4.34-9.35-11.27-9.79-18.82l-5.45-92.38c-0.98-16.59-0.55-33.25,1.28-49.75
	l3.36-30.37c1-9.06,3.18-17.93,6.46-26.34l12.48-32.02l1.09-38.66l23.97-15.67c37.76-24.68,80.8-37.63,124.63-37.51l0.35,0
	c23.58,0.07,46.96,4.81,69.03,14.01L440.8,274.73z"/>
<path class="st5" d="M53.91,674.25"/>
<path class="st5" d="M36.45,434.47"/>
<path class="st5" d="M141.2,551.32"/>
<path class="st5" d="M483.43,511.44"/>
<path class="st2" d="M278.19,222.88l1.42-3.9c3.93-8.09,11.05-13.41,19.03-14.22l6.91-0.7l23.94-2.94c0,0-13.68,14.34-14.54,14.84
	c-0.86,0.5-13.68,2.97-13.68,2.97"/>
<path class="st2" d="M321.43,216.87l1.2,0.08c3.32-5.19,9.33-10.55,16.07-11.07l5.84-0.45l20.22-2.59c0,0-11.55,9.9-12.28,10.21
	c-0.72,0.32-11.55,1.91-11.55,1.91"/>
<path class="st2" d="M277.68,253.81l49.58-5.38l24.25,7.24l-27.49,1.88c-2.89,0.2-5.72,0.99-8.35,2.32l-13.57,6.92
	c-3.1,1.58-5.62,4.26-7.13,7.58l-8.01,17.61l22.64-7.25c4.44-1.42,9.14-1.62,13.68-0.58l5.17,1.19c3.85,0.88,7.38,2.95,10.16,5.96
	l5,16.58l-17.08-2.1c-4.49-0.55-9.02,0.36-13.03,2.61l-21.09,11.85l11.98,21.77l-39.28-7.23c-5.63-1.04-11.42-0.18-16.59,2.44
	l-22.23,11.3c-4.53,2.3-8.32,5.99-10.92,10.61c-5.11,9.11-13.2,24-12.83,26.42c0.09,0.58,0,0,23.42,2.35l30.05,23.9
	c5.8,4.61,13.25,6.05,20.17,3.89c13.87-4.34,36.15-11.46,38.01-13.07c2.72-2.35,9.26-33.54,9.8-35.31c0.39-1.28,4.22-4.41,6.29-6.04
	c0.63-0.49,1.51-0.11,1.66,0.7l11.22,58.54c0.4,2.09,0.19,4.27-0.62,6.23l-0.15,0.36c-3.17,7.74-9.29,13.61-16.78,16.09l-24.23,8.04
	c-1.52,0.5-2.67,1.85-3.01,3.53l-0.97,4.7c-0.42,2.04-0.06,4.17,1.01,5.91l3.04,4.99l10.16,7.56l-24.66-9.42l-2.71-4.57
	c-2.44-4.1-2.99-9.19-1.51-13.8l2.04-6.32l-13.88,4.29c-5.72,1.77-10.48,6.08-13.08,11.86l-3.11,6.91
	c-2.88,6.4-7.7,11.55-13.66,14.59l-16.17,8.25c0,0-12.53,37.07-8.71,32.95c2.47-2.67,11.32-4.59,17.26-5.62
	c3.4-0.59,6.82,0.91,8.88,3.9l6.13,8.92c3.02,4.4,4.12,10,3,15.34l-5.87,28.07l40.81-6.13c3.9-0.59,7.88-0.04,11.53,1.56
	c5.9,2.6,14.3,6.11,13.23,4.57c-1.63-2.35,9.97,16.48,9.97,16.48l-30.2,6.46c-5.45,1.17-10.55,3.75-14.87,7.52L259.73,618
	l-33.77-21.19l-47.93-35.31l-11.16-100.84c-0.55-4.93-0.4-9.93,0.44-14.81l8.72-50.69c0.96-5.58,2.87-10.92,5.64-15.74l5.92-10.34
	c2.66-4.65,4.26-9.92,4.64-15.37l2.13-29.95l0.29-7.49c0.5-12.9,7.16-24.59,17.6-30.87l35.8-21.55
	C257.19,258.36,267.28,254.94,277.68,253.81z"/>
<path class="st2" d="M288.33,477.72l24.92,7.29v20.01c0,0,7.04,11.18,10.83,4.71l7.58-2.35l7.58,4.71l-15.17,5.88l-10.41-3.99
	c-5.2-2-10.85-2.17-16.15-0.49l-17.85,5.66l-1.08-18.83L288.33,477.72z"/>
<path class="st6" d="M455.17,631.96"/>
<path class="st2" d="M291.58,531.68l4.76-0.86c3.99-0.72,8.09-0.41,11.95,0.9l11.46,3.89l-18.42,2.35l-18.42-2.35L291.58,531.68z"/>
<path class="st2" d="M342.5,533.26c2.71,2.35-9.75,3.55-9.75,3.55l20.58,0.55"/>
<path class="st2" d="M232.68,377.9l3.46-2.96c2.13-1.82,4.08-3.83,5.85-6l5.95-7.32l4.65,0.32c6.13,0.43,11.96,2.82,16.63,6.83
	l1.03,0.89l-11.74,5.88l-10.57-1.18"/>
<polyline class="st2" points="361.75,428.33 360.66,416.57 371.56,431.87 377,447.17 "/>
<path class="st2" d="M403.91,374.2c-0.59-3.53,7.87,5.31,7.87,5.31l9.46,3.13l14.58,8.04l-6.02-8.33
	c-2.93-4.05-7.49-6.63-12.49-7.04L403.91,374.2z"/>
<path class="st2" d="M388.4,438.61l2.49,17.04l13.72,14.61L399.62,452l13.72,4.87l23.69-8.52l-16.75-12.02
	c-2.94-2.11-6.25-3.66-9.78-4.58L380.92,424"/>
<path class="st2" d="M337.27,576.15c0,0,7.48-5.48,14.97-8.52c7.48-3.04,32.42,9.74,32.42,9.74l0.21,15.02l-19.95-3.03"/>
<polyline class="st2" points="363.25,474.92 372.19,467.82 390.5,496.83 369.3,497.63 354.73,482.43 "/>
<path class="st2" d="M131.69,325.9l5.28,111.85C136.54,440.59,155.52,317.97,131.69,325.9z"/>
<path class="st2" d="M87.08,354.18c0,0-18.08,45.04,14.97,35.3c33.05-9.74,23.48-57.03,21.82-56.18"/>
<path class="st2" d="M78.13,370.45c0,0,6.88,50.26,0.65,103.82C73.83,516.75,56.53,402.86,78.13,370.45z"/>
</svg>
