<?xml version="1.0" encoding="utf-8"?>
<!-- Generator: Adobe Illustrator 26.5.0, SVG Export Plug-In . SVG Version: 6.00 Build 0)  -->
<svg version="1.1" id="Layer_1" xmlns="http://www.w3.org/2000/svg" xmlns:xlink="http://www.w3.org/1999/xlink" x="0px" y="0px"
	 viewBox="0 0 595.3 841.9" style="enable-background:new 0 0 595.3 841.9;" xml:space="preserve">
<style type="text/css">
	.st0{fill:#3A3839;stroke:#000000;stroke-miterlimit:10;}
	.st1{fill:#FFFFFF;stroke:#000000;stroke-miterlimit:10;}
	.st2{fill:#40403F;stroke:#000000;stroke-miterlimit:10;}
	.st3{fill:#3A3839;}
	.st4{fill:#FFFFFF;}
</style>
<path class="st0" d="M-264,377.7"/>
<path class="st0" d="M-254.7,892.8"/>
<path class="st1" d="M-233.9,440.1"/>
<path class="st1" d="M-1.5,872.1"/>
<path class="st0" d="M-36.6,834.9"/>
<path class="st2" d="M11.5,719.6"/>
<path class="st0" d="M710.7,400.4"/>
<path class="st0" d="M30.8,254.6"/>
<path d="M671.1,468.9l-13.7-15.4c-9.8-48.6-23.1-97.6-39.5-145.1l1.2-28.3c1.5-36.6,7.1-72.8,16.7-107.7l10.8-70
	c4.1-26.1-10.6-51.5-34.9-60.8l-65.8-25c-10.7-3.2-24.9,13.9-33.1,6.3c-24.8-23.1,3.7-31.1-30-34.6C430.7-17.2,331.2,0.1,278.9,6.1
	L123.2,37.6c-12.9,2.6-24.1,10-30.9,20.5L73.1,87.9c-5,7.7-9.7,15.5-14.2,23.5C6.6,155-56.4,206.4-86.9,265.8
	c-13.9,27.1-44.6,99.4-44.6,99.4c-25.8,75.5-22.8,117.5-0.6,194.1l0.8,2.7l2.2,2.3c32.7,34.9,84.4,53,98.5,98.1l36.5,2.1l28.7-8.2
	l2.6,42c0.9,13.5,7.7,25.8,18.6,33.6l141,100.1c21.6,15.3,47.2,23.5,73.5,23.5h85c17.6,0,34.8-5.5,49.1-15.8l113.9-81.2
	c7.8-5.6,13.6-13.2,16.7-21.8l18.5-52.5l0.1-0.3c0.1,0.4,0.2,0.6,0.2,0.6l43.6-8.4C597.4,676.1,676.2,564.2,671.1,468.9z
	 M-120.4,541.4c-9.4,75.8-42.3-127.4-1.2-185.2C-121.6,356.2-108.5,445.9-120.4,541.4z M-76.2,390.1c-62.8,17.3-28.4-63-28.4-63
	l69.9-37.2C-31.6,288.4-13.4,372.8-76.2,390.1z M-9.8,476.3l-10-199.6c10.5-3.3,16.6,6,19.8,22.2c0.7,3.6,1.3,7.5,1.7,11.7
	C7.7,366.9-9.2,472.8-9.8,476.3z M3.9,272.2c-11,0.2-23.4,1.1-23.6,0.9L-89.2,318C-72,265.6-27,218.9,28,178.7
	C17,208.6,9,239.9,3.9,272.2z M509.2,363.5c9.5,0.7,18.2,5.3,23.7,12.6l11.4,14.9l-27.7-14.3l-18-5.6L509.2,363.5z M446.3,493.1
	l-29-33.6l-2.1-21l20.8,27.3L446.3,493.1z M451.4,584l4.9,6.7l-28.5-2.2c-29.3-19.4-34.9-29.7-23.3-35.1c9.8-4.5,29.3-14,32.7-19.9
	l6.8,21.1l1.2,13.2C445.7,573.6,447.8,579.2,451.4,584z M384.7,61.8l38.4-4.6c0,0-21.9,17.6-23.3,18.2c-1.4,0.6-22,3.4-22,3.4
	L343.3,82c6.3-9.1,17.6-18.5,30.3-19.4L384.7,61.8z M261.3,85.9c7.5-14.4,21-23.9,36.2-25.4l13.1-1.2l45.5-5.2
	c0,0-26,25.6-27.6,26.5c-1.6,0.9-26,5.3-26,5.3l-43.9,7L261.3,85.9z M282.8,759c-10.3,2.1-20,6.7-28.2,13.4l-31,25.4L159.4,760
	l-91.1-63L55.8,591.4L47,517.2c-1-8.8-0.8-17.7,0.8-26.4L58,435.1l6.4-34.7c1.8-10,5.5-19.5,10.7-28.1l11.3-18.5
	c5.1-8.3,8.1-17.7,8.8-27.4l4-53.5l0.5-13.4c1-23,13.6-43.9,33.5-55.1l68-38.4c17.4-9.8,36.5-15.9,56.3-17.9l89.9-9.2l4.3-0.4l3.7,1
	l42.4,11.9l-52.2,3.4c-5.5,0.3-10.9,1.8-15.9,4.1L298,174.8c-5.9,2.8-4.8,4-7.7,9.9l-15.2,31.4l43-12.9c8.4-2.5,17.4-2.9,26-1
	l9.8,2.1c7.3,1.6,14,5.3,19.3,10.6l9.5,29.6l-32.5-3.7c-8.5-1-17.2,0.6-24.8,4.7l-46,30.1l28.7,29.8l-74.6-12.9
	c-10.7-1.8-21.7-0.3-31.5,4.4l-42,20.2c-8.6,4.1-15.8,10.7-20.8,18.9c-9.7,16.2-25.1,42.8-24.4,47.1c0.2,1,0,0,44.5,4.2l57.1,42.6
	c11,8.2,25.2,10.8,38.3,6.9c26.4-7.7,68.7-20.5,72.2-23.3c5.2-4.2,17.6-59.9,18.6-63c0.8-2.3,8-7.9,12-10.8c1.2-0.9,2.9-0.2,3.2,1.3
	L382,445.4c0.8,3.7,0.4,7.6-1.2,11.1l-0.3,0.6c-6,13.8-17.7,24.3-31.9,28.7l-46.1,14.4c-2.9,0.9-5.1,3.3-5.7,6.3l-1.8,8.4
	c-0.8,3.6-0.1,7.4,1.9,10.5l5.8,8.9l19.3,13.5L275.1,531l-5.2-8.2c-4.6-7.3-5.7-16.4-2.9-24.6l3.9-11.3l-26.4,7.6
	c-10.9,3.2-19.9,10.9-24.9,21.2l-5.9,12.3c-5.5,11.4-14.6,20.6-26,26l-30.4,15c0,0-23.8,66.2-16.6,58.8c4.7-4.8,21.5-8.2,32.8-10
	c6.5-1,13,1.6,16.9,7l11.6,15.9c5.7,7.8,7.8,17.8,5.7,27.4l-11.2,50.1l77.5-10.9c7.4-1,15-0.1,21.9,2.8c10.4,4.3,25,10,25.3,8.6
	c2.9,4.8,18.8,28.9,18.8,28.9L282.8,759z M243.5,354.8l-22.3,10.5l-20.1-2.1l-29,6.3l6.6-5.3c4-3.2,7.8-6.8,11.1-10.7l11.3-13.1
	l8.8,0.6c11.7,0.8,22.7,5,31.6,12.2L243.5,354.8z M267.6,650.9l16.5-7l9-1.5c7.6-1.3,15.4-0.7,22.7,1.6l21.8,6.9l-35,4.2
	L267.6,650.9z M345.8,619.4l-19.8-7.1c-9.9-3.6-20.6-3.9-30.7-0.9l-33.9,10.1l-2.1-33.6l18.5-40.3l47.3,13v35.7
	c0,0,13.4,20,20.6,8.4l14.4-4.2l14.4,8.4L345.8,619.4z M380.8,646.7l20.6,7.3l-39.1-1C362.3,653,386,650.9,380.8,646.7z
	 M423.4,746.8l-52.5-23.6c0,0,14.2-9.8,28.4-15.2c14.2-5.4,61.6,17.4,61.6,17.4l0.4,26.8L423.4,746.8z M515.4,510.4l-26.1-8.7
	l9.5,39.8l-30-27.9l-0.8-35.8l-14.2-26.1l56.2,13.8c6.7,1.6,13,4.4,18.6,8.2l31.8,21.5L515.4,510.4z M624.8,405.7L614.5,392l-3.8-5
	l5.1-27.4l0.6-14.1c0.4,1.6,0.8,3.3,1.1,4.9c5.3,22.9,8.9,43,9,55.5L624.8,405.7z"/>
<path class="st3" d="M-26.3,795.2"/>
<path class="st3" d="M-30.6,481.9"/>
<path class="st3" d="M59.3,688.9"/>
<path class="st3" d="M709.6,617.8"/>
<path class="st4" d="M382.4,728.5c-0.5-0.9-0.6-1.1-0.2-0.5C382.3,728.3,382.4,728.4,382.4,728.5z"/>
</svg>
