<?xml version="1.0" encoding="UTF-8"?>
<svg id="Layer_1" data-name="Layer 1" xmlns="http://www.w3.org/2000/svg" viewBox="0 0 649 550">
  <defs>
    <style>
      .cls-1 {
        fill: #e5d0e5;
      }

      .cls-2 {
        fill: #f2f2f3;
      }

      .cls-3 {
        fill: #5397aa;
      }

      .cls-4 {
        fill: #898989;
      }

      .cls-5 {
        fill: #6cc6e5;
      }

      .cls-6 {
        fill: #472469;
      }

      .cls-7 {
        fill: #c6c6c5;
      }
    </style>
  </defs>
  <circle class="cls-1" cx="374" cy="275" r="275"/>
  <polygon class="cls-2" points="247.16 286 239.25 277 247.16 241 318.35 151 476.54 187 492.36 250 484.45 322 468.63 376 365.81 457 326.26 448 247.16 286"/>
  <path class="cls-7" d="M495.97,342.46l15.72-31.83c3.2-6.48,4.3-14.18,3.08-21.58l-4.86-29.55c-.4-2.41-1.89-4.32-3.85-4.93l-6.88-2.13c-2.91-.9-5.85,1.35-6.44,4.93l-20.27-21.74-54.45-7.06-11.24,13.12c-2.16,2.52-1.81,6.73,.74,8.71l12.26,9.54c2.48,1.93,2.05,6.34-.75,7.56l-54.99,24.07-10.71,14.44h-7.71l10.71,21.56,27.84,5.44-15.42-9,55.81-21c1.11-.16,.5,8.12,0,9.28l-9.54,8.72,15.42-6c.31,.36,7.38,8.67,7.71,9l-7.71,12-15.42,6-7.71,9h-23.13l23.13,18,15.42-1.79-7.71,19.79,30.84-27-21.42,54,44.55-36,16.05-46.82,1.27,9.07c.43,3.07,2.61,5.31,5.17,5.31,1.84,0,3.55-1.18,4.5-3.1Z"/>
  <path class="cls-6" d="M409.66,286.06c-23.37,0-25.56-1.44-45,18l-9,18,37.11-3.15c7.17,0,14.14-2.32,19.87-6.62l24.02-17.23"/>
  <polygon class="cls-4" points="325.5 255.5 298.5 264.5 289.5 291.5 316.5 300.5 318 327.35 316 359.5 311 374.5 307.5 363.5 298.5 372.5 305 377.5 319 381.5 319 392.5 313 396.5 325.5 399.5 322 404.5 325.5 408.5 316.5 426.5 325.5 444.5 370.5 452 396 439 361.5 461.5 324 458.5 285 417.5 260 372.5 239 341.5 235.5 300.5 226.5 282.5 244.5 228.5 325.5 210.5 343.5 255.5 325.5 255.5"/>
  <path class="cls-5" d="M216.47,250.48l8.41,55.52c-1.04,4.24,14.54-23.28,16.81-27l8.41-29.67,52.81-22.71c2.86-1.23,6.04,.87,6.04,3.99v6.79c0,7.51,3.52,14.57,9.51,19.08l15.71,13.51c3.4,2.9,15.65,13.32,16.81,9,0,0,14.03-52.98,15.55-52.43l56.72,17.58c.67,.24,1.33,.5,1.97,.82,6.36,3.16,11.12,8.88,13.08,15.76l21.97,18.27c1.57,5.52,4.98,13.41,8.41,18l8.41,9,8.41,27,16.81-27,7.29-25.76c.74-3.71,.84-7.51,.31-11.26l-7.6-53.39,2.71-5.45c3.61-7.24,3.86-15.72,.68-23.16l-16.13-37.75c-2.67-6.26-6.94-11.7-12.37-15.79l-22.26-16.75c-1.89-1.42-4.41-1.65-6.52-.59l-10.87,5.45c-1.6,.8-3.45,.9-5.12,.27l-59.51-22.39c-3-1.13-6.39-.04-8.17,2.64l-12.86,19.35c-.52,.79-1.55,1.06-2.39,.64l-23.95-12.01c-4.9-2.46-10.81-1.49-14.68,2.39l-27.15,27.23-34.87-7c-4.1-.82-8.16,1.54-9.48,5.52l-6.09,18.34-16.81,8.43h-11.52c-2.92,0-5.29,2.38-5.29,5.31v11.56h-8.41v26.35c0,9.96,4.67,19.34,12.61,25.31l12.61,16.96Z"/>
  <path class="cls-6" d="M315,323.15l-26.99,.85c-6.37,0-12.57-2.32-17.67-6.62l-18.35-12.23,18-9c11.95,0,34.05-.51,42.5,9l2.5,18Z"/>
  <polygon class="cls-7" points="261 324 279 333 297 333 288 342 297 342 306 333 306 342 288 360 279 360 270 351 261 351 252 333 261 324"/>
  <polygon class="cls-7" points="341.57 277.99 327.69 306 325.73 360 331.6 351 331.6 369 349.23 369 349.23 360 375.67 378 358.04 378 349.23 378 325.73 383 322.79 394 340.42 396 366.85 387 393.29 387 384.48 405 375.67 423 379.58 399 364.9 405 349.23 401 331.6 405 349.23 414 322.79 423 331.6 441 359.02 442 393.29 414 384.48 432 427 411 393.29 441 367.83 454 322.79 446 313.98 423 322.79 407 320.83 405 324.72 400 312.02 397 317.9 393 317.9 382 306.15 379 297.33 373 307.13 362 311.04 374 314.96 360 316.92 327 313.98 300 289.5 292 298.31 265 316.92 258 341.57 277.99"/>
  <polyline class="cls-1" points="398.03 301.38 405 297 385 297 400.65 293 416.32 297 408.48 300.13"/>
  <polyline class="cls-1" points="288 303 300 306 304 315"/>
  <polyline class="cls-1" points="268 304.75 273 311.25 279 313.25"/>
  <path class="cls-3" d="M216.47,252c0,.32-14.98-18-8.41-18,16.81,0,25.22-11.15,25.22-27,0-9,49.04,11.58,42.04,9-5.23-1.92-4.22-15.09,8.41-18,10.38-2.39,33.63,18,33.63,18v-27l100.89,27,25.22,9,8.41,18v18l25.22,45-42.04-45-9.84-16.03-32.2-10.97-26.49-7.43-15.55,55.43-33.63-12-16.81-36-33.63,9-16.81,6.33-8.41,29.67-16.81,27-8.41-54Z"/>
  <line class="cls-1" x1="234" y1="207" x2="225" y2="198"/>
</svg>