<?xml version="1.0" encoding="utf-8"?>
<!-- Generator: Adobe Illustrator 26.5.0, SVG Export Plug-In . SVG Version: 6.00 Build 0)  -->
<svg version="1.1" id="Layer_1" xmlns="http://www.w3.org/2000/svg" xmlns:xlink="http://www.w3.org/1999/xlink" x="0px" y="0px"
	 viewBox="0 0 595.28 841.89" style="enable-background:new 0 0 595.28 841.89;" xml:space="preserve">
<style type="text/css">
	.st0{fill:#3A3839;stroke:#000000;stroke-miterlimit:10;}
	.st1{fill:#FFFFFF;stroke:#000000;stroke-miterlimit:10;}
	.st2{fill:#3A3839;}
	.st3{fill:#40403F;stroke:#000000;stroke-miterlimit:10;}
	.st4{fill:#383938;}
	.st5{fill:#FFFFFF;}
</style>
<path class="st0" d="M-264,377.68"/>
<path class="st0" d="M-254.72,892.81"/>
<path class="st1" d="M-233.91,440.13"/>
<path class="st1" d="M-1.46,872.08"/>
<path class="st0" d="M-36.57,834.91"/>
<path class="st2" d="M103.26,663.97c0,0,32.16-112.35,16.99-203.7c-6.45-38.86,13.28-102.38-39-176.4
	c-2.54-3.59-39.67-0.54-40.07-0.76l-69.36,44.86c26.95-82.31,122.73-150.65,218.18-201.74C247.97,95.21,299.63,63.72,353.54,59
	c0,0-75.17-6.05-116.87,5.94c-57.55,16.55-70.08,17.79-112.75,53.26C70.65,162.5,5.42,214.94-25.88,275.84
	c-13.92,27.09-44.57,99.39-44.57,99.39c-25.76,75.49-22.82,117.55-0.64,194.1l0.77,2.66l2.17,2.31
	c32.72,34.85,84.4,52.98,98.46,98.08l36.47,2.12L103.26,663.97z"/>
<path class="st3" d="M11.51,719.6"/>
<path class="st0" d="M710.72,400.43"/>
<path class="st0" d="M30.82,254.58"/>
<path class="st2" d="M664.77,387.81l20.95,27.86l1.74,0.09c-0.35-46.11-49.29-198.61-49.29-198.61
	c35.64,76.37,63.28,162.06,80.19,246.3l13.65,15.41c5.11,95.29-73.67,207.17-73.67,207.17l-43.62,8.4c0,0-20.38-52.5-9.26-124.95
	C612.95,520.73,664.77,387.81,664.77,387.81z"/>
<path class="st2" d="M60.37,313.33l3.57-24.97c9.89-69.13,33.95-134.46,70.12-190.46l19.24-29.78
	c6.75-10.44,17.92-17.86,30.85-20.48l155.69-31.51c52.28-6.04,151.78-23.31,203.91-17.85c33.71,3.53,5.18,11.55,30.02,34.65
	c8.21,7.63,22.4-9.51,33.12-6.3l65.76,25.02c24.39,9.28,39.01,34.66,34.99,60.77l-10.76,69.98c-9.58,34.9-15.2,71.11-16.72,107.7
	l-6,144.97l-45.54-213.36l0,0c-42.9-33.31-91.79-54.7-142.91-62.54l-41.46-6.35c-51.32-7.86-103.41-5.91-154.19,5.78l-45.71,18.9
	c-40.78,19.62-77.61,48.91-108.14,86.01l-1.32,1.6l-2.07,77.15l-33.12,89.2L60.37,313.33z"/>
<path class="st4" d="M628.63,195.43l27.95,88.37l5.37,7.19c15.09,20.2,21.45,45.76,17.63,70.81l-10.47,55.64l6.95,50.42
	c3.65,20.63,5.85,41.87-1.09,61.61l-78.79,224.01c-3.04,8.64-8.85,16.25-16.67,21.82l-113.91,81.18
	c-14.39,10.26-31.55,15.76-49.14,15.76H331.5c-26.3,0-51.96-8.2-73.52-23.49L116.97,748.69c-10.91-7.74-17.76-20.1-18.61-33.58
	L88.01,550.28c-1.86-29.6-1.05-59.32,2.43-88.77l6.39-54.18c1.91-16.17,6.04-31.99,12.27-47l23.73-57.12l2.07-68.97l45.56-27.96
	c71.75-44.03,153.56-67.15,236.85-66.93l0.66,0c44.81,0.12,89.24,8.58,131.18,24.99L628.63,195.43z"/>
<path class="st2" d="M-26.33,795.19"/>
<path class="st2" d="M-30.64,481.85"/>
<path class="st2" d="M59.26,688.93"/>
<path class="st2" d="M709.63,617.77"/>
<path class="st5" d="M319.6,102.92l2.7-6.96c7.46-14.44,21-23.93,36.17-25.37l13.14-1.24l45.5-5.25c0,0-26,25.59-27.63,26.48
	s-26,5.31-26,5.31"/>
<path class="st5" d="M401.77,92.19l2.28,0.14c6.3-9.26,17.73-18.83,30.54-19.75l11.09-0.8l38.43-4.62c0,0-21.96,17.66-23.33,18.22
	c-1.37,0.57-21.96,3.4-21.96,3.4"/>
<path class="st5" d="M318.63,158.11l94.23-9.59l46.08,12.91l-52.25,3.35c-5.5,0.35-10.88,1.76-15.86,4.14l-31.69,15.94
	c-5.9,2.82-4.78,3.99-7.65,9.93l-15.22,31.42l43.02-12.94c8.44-2.54,17.38-2.9,25.99-1.04l9.83,2.12
	c7.31,1.57,14.02,5.27,19.31,10.63l9.5,29.58l-32.46-3.74c-8.53-0.98-17.15,0.64-24.76,4.65l-45.98,30.15l28.67,29.84l-74.64-12.91
	c-10.7-1.85-21.71-0.33-31.53,4.36l-42.25,20.17c-8.6,4.11-15.82,10.69-20.75,18.93c-9.72,16.25-25.09,42.82-24.38,47.14
	c0.17,1.03,0,0,44.51,4.2l57.1,42.64c11.02,8.23,25.19,10.79,38.34,6.93c26.36-7.74,68.7-20.45,72.24-23.32
	c5.18-4.2,17.6-59.85,18.63-63c0.75-2.28,8.01-7.86,11.96-10.77c1.19-0.88,2.86-0.2,3.16,1.26l21.32,104.44
	c0.76,3.74,0.35,7.62-1.17,11.11l-0.28,0.64c-6.03,13.8-17.66,24.28-31.88,28.71l-46.05,14.35c-2.89,0.9-5.07,3.3-5.73,6.29
	l-1.84,8.38c-0.8,3.63-0.11,7.44,1.91,10.55l5.78,8.9l19.3,13.49l-46.87-16.8l-5.16-8.16c-4.63-7.32-5.69-16.4-2.86-24.62
	l3.88-11.28l-26.39,7.65c-10.87,3.15-19.91,10.85-24.86,21.16l-5.91,12.34c-5.48,11.42-14.64,20.61-25.96,26.03l-30.74,14.72
	c0,0-23.81,66.15-16.56,58.8c4.69-4.76,21.52-8.19,32.81-10.03c6.47-1.05,12.97,1.63,16.88,6.96l11.65,15.91
	c5.74,7.84,7.83,17.84,5.71,27.37l-11.15,50.09l77.55-10.94c7.42-1.05,14.97-0.08,21.91,2.79c11.21,4.64,27.18,10.91,25.14,8.15
	c-3.11-4.2,18.94,29.4,18.94,29.4l-57.4,11.53c-10.35,2.08-20.05,6.69-28.25,13.42l-30.98,25.44l-64.18-37.8l-91.09-63
	l-21.21-179.92c-1.04-8.8-0.75-17.71,0.84-26.43l16.57-90.44c1.82-9.96,5.46-19.48,10.71-28.09l11.26-18.45
	c5.06-8.3,8.09-17.7,8.83-27.43l4.05-53.45l0.55-13.36c0.95-23.01,13.61-43.87,33.45-55.08l68.03-38.44
	C279.69,166.22,298.85,160.12,318.63,158.11z"/>
<path class="st5" d="M338.87,557.61l47.35,13v35.7c0,0,13.38,19.95,20.59,8.4l14.41-4.2l14.41,8.4l-28.82,10.5l-19.79-7.12
	c-9.89-3.56-20.63-3.86-30.7-0.87l-33.93,10.09l-2.06-33.6L338.87,557.61z"/>
<path class="st5" d="M345.05,653.9l9.04-1.53c7.59-1.29,15.37-0.74,22.71,1.61l21.77,6.94l-35,4.2l-35-4.2L345.05,653.9z"/>
<path class="st5" d="M441.81,656.71c5.15,4.2-18.53,6.34-18.53,6.34l39.12,0.99"/>
<path class="st5" d="M233.1,379.51l6.58-5.29c4.04-3.25,7.76-6.83,11.12-10.7l11.31-13.06l8.83,0.57
	c11.65,0.76,22.73,5.03,31.6,12.18l1.96,1.58l-22.31,10.5l-20.08-2.1"/>
<polyline class="st5" points="478.4,469.5 476.33,448.5 497.03,475.8 507.38,503.1 "/>
<path class="st5" d="M559.7,387.79l17.97,5.59l27.72,14.34l-11.44-14.87c-5.57-7.23-14.24-11.82-23.74-12.56L559.7,387.79z"/>
<path class="st5" d="M529.04,487.83l0.81,35.81l30,27.86l-9.48-39.79l26.07,8.69l45.03-15.2l-31.84-21.45
	c-5.58-3.76-11.88-6.54-18.58-8.18l-56.23-13.8"/>
<path class="st5" d="M431.87,733.24c0,0,14.22-9.77,28.44-15.2c14.22-5.43,61.62,17.37,61.62,17.37l0.4,26.8l-37.92-5.41"/>
<path class="st5" d="M465.5,563.43c9.76-4.53,29.32-13.97,32.73-19.87l6.76,21.08l1.15,13.18c0.51,5.8,2.64,11.38,6.2,16.2
	l4.95,6.71l-28.49-2.17C459.54,579.11,453.89,568.81,465.5,563.43z"/>
<path class="st5" d="M41.18,286.73L51.21,486.3C50.39,491.36,86.47,272.59,41.18,286.73z"/>
<path class="st5" d="M-43.59,337.18c0,0-34.37,80.35,28.44,62.98c62.81-17.37,44.62-101.76,41.48-100.25"/>
<path class="st5" d="M-60.6,366.21c0,0,13.08,89.68,1.23,185.23C-68.78,627.25-101.66,424.05-60.6,366.21z"/>
</svg>
